<svg width="24" height="24" viewBox="0 0 24 24" fill="none" xmlns="http://www.w3.org/2000/svg">
<path fill-rule="evenodd" clip-rule="evenodd" d="M21.9251 2.61957C21.9592 2.70249 21.9825 2.79102 21.9933 2.88338L21.9933 2.88433C21.9978 2.92274 22 2.96137 22 3V9C22 9.55228 21.5523 10 21 10C20.4872 10 20.0645 9.61396 20.0067 9.11662L20 9V5.41421L10.7071 14.7071C10.3166 15.0976 9.68342 15.0976 9.29289 14.7071C8.93241 14.3466 8.90468 13.7794 9.2097 13.3871L9.29289 13.2929L18.5858 4H15C14.4872 4 14.0645 3.61396 14.0067 3.11662L14 3C14 2.48716 14.386 2.06449 14.8834 2.00673L15 2H21C21.1357 2 21.2652 2.02705 21.3832 2.07605C21.501 2.12484 21.6113 2.19713 21.7071 2.29289C21.8036 2.38941 21.8763 2.50074 21.9251 2.61957ZM11 5C11.5523 5 12 5.44772 12 6C12 6.51284 11.614 6.93551 11.1166 6.99327L11 7H5C4.48716 7 4.06449 7.38604 4.00673 7.88338L4 8V19C4 19.5128 4.38604 19.9355 4.88338 19.9933L5 20H16C16.5128 20 16.9355 19.614 16.9933 19.1166L17 19V13C17 12.4477 17.4477 12 18 12C18.5128 12 18.9355 12.386 18.9933 12.8834L19 13V19C19 20.5977 17.7511 21.9037 16.1763 21.9949L16 22H5C3.40232 22 2.09634 20.7511 2.00509 19.1763L2 19V8C2 6.40232 3.24892 5.09634 4.82373 5.00509L5 5H11Z" fill="#9796B1"/>
</svg>
